<svg id="logo_azul" xmlns="http://www.w3.org/2000/svg" width="1077.828" height="208.637" viewBox="0 0 1077.828 208.637">
  <path id="Trazado_3" data-name="Trazado 3" d="M727.8,33.533c-5.853-2.341-14.438-4.292-26.145-4.292h-1.561a156.963,156.963,0,0,0-25.364,2.341c-1.561.39-1.951,1.171-1.951,2.732V47.19c0,1.561.78,2.341,2.732,1.951a166.334,166.334,0,0,1,22.633-1.951h.78c8.975,0,16.389.78,20.682,3.9,4.293,2.732,6.634,7.414,6.634,16.779V70.6a98.728,98.728,0,0,0-21.852-2.341h-1.951c-12.1,0-23.413,2.732-30.827,9.756-5.463,5.073-9.365,12.877-9.365,23.023v.78c0,20.291,14.048,32.388,42.144,32.388h5.073c10.926,0,21.462-3.122,28.1-8.585,7.414-5.853,10.146-14.828,10.146-29.266V67.092C747.311,47.971,739.506,38.606,727.8,33.533Zm-1.951,62.825c0,7.8-.39,12.1-3.122,15.219-3.122,3.512-8.195,5.073-15.219,5.073H704c-12.877,0-20.682-5.073-20.682-15.219A14.307,14.307,0,0,1,688,90.5c3.122-2.732,8.195-4.292,16.389-4.292h1.951a83.345,83.345,0,0,1,19.511,2.341ZM816.38,29.24H804.673c-16.779,0-29.657,5.853-35.51,17.95-2.341,5.073-3.122,12.1-3.122,19.9v64c0,1.561.781,1.951,1.951,1.951h17.56c1.561,0,1.951-.39,1.951-1.951V77.237c0-7.414,0-12.877.39-16.389,1.171-8.975,6.244-12.877,18.73-12.877h9.365a2.07,2.07,0,0,0,2.341-2.341V31.191C818.331,30.021,817.94,29.24,816.38,29.24ZM398.844,132.649h18.731A2.924,2.924,0,0,0,420.7,130.7c12.1-23.023,30.827-62.045,32-97.945,0-1.561-.39-1.951-2.341-1.951h-17.56c-1.951,0-2.731.78-2.731,2.341a196.469,196.469,0,0,1-7.414,41.363c-4.292,14.048-9.365,27.315-14.438,37.071-5.073-9.755-10.146-23.023-14.438-37.071a204.508,204.508,0,0,1-7.414-41.754c0-1.951-1.171-2.341-2.732-2.341h-17.56c-1.951,0-2.341.78-2.341,2.732,2.341,34.73,13.267,62.045,32,97.165C396.5,132.258,397.283,132.649,398.844,132.649ZM538.933,87.383c4.683,1.561,8.585,3.122,13.267,4.683,10.146,3.512,14.048,6.244,14.048,12.487,0,7.8-6.634,12.1-21.462,12.1h-.39a87.816,87.816,0,0,1-26.535-4.292c-1.951-.39-2.732,0-2.732,1.951v12.877c0,1.561.39,2.732,1.951,3.122,8.195,2.732,19.511,4.292,28.486,4.292h.781c26.535,0,40.973-11.707,40.973-31.218v-.39c0-7.414-2.341-14.048-7.024-18.731-4.292-4.292-11.316-7.8-21.462-11.707-5.463-1.951-9.756-3.512-13.658-5.073-8.585-3.122-10.926-6.244-10.926-10.536,0-7.414,7.414-10.146,18.731-10.146h.78a126.92,126.92,0,0,1,24.584,2.732c1.951.39,2.732,0,2.732-1.951V34.7c0-1.561-.39-2.341-2.341-2.732-6.244-1.171-17.95-2.732-24.584-2.732h-1.561c-13.658,0-23.8,2.341-30.437,8.195-5.463,4.683-8.975,12.1-8.975,20.682v.78c0,7.8,2.732,14.438,7.414,18.731C524.885,81.53,531.129,84.261,538.933,87.383Zm106.92,45.265c1.561,0,2.341-.78,2.341-1.951V116.259c0-1.171-.78-1.951-2.341-1.951h-2.341c-7.024,0-11.316-1.561-13.658-4.292-3.512-3.512-4.292-9.365-4.292-16.389V49.142h19.121c1.561,0,2.341-.39,2.341-1.951V33.143c0-1.561-.78-1.951-2.341-1.951H625.562V12.851c0-1.561-.781-1.951-2.341-1.951h-17.56c-1.561,0-1.951.39-1.951,1.951V94.407c0,14.048,2.731,23.023,8.975,29.266,5.853,5.853,14.828,8.975,28.1,8.975ZM200.613,29.24H195.54c-15.219,0-24.974,3.9-30.047,10.146h0c-4.683-5.853-15.609-10.146-30.827-10.146H129.2c-17.17,0-30.827,5.853-36.681,17.95-2.341,5.073-3.122,12.1-3.122,19.9v63.216a2.069,2.069,0,0,0,2.341,2.341h17.17a2.069,2.069,0,0,0,2.341-2.341V77.628c0-7.414,0-12.877.39-16.389,1.171-8.975,7.414-13.267,19.9-13.267H133.1c12.487,0,19.511,4.292,20.291,13.267.39,3.512.39,8.975.39,16.389v52.68a2.069,2.069,0,0,0,2.341,2.341H173.3a2.249,2.249,0,0,0,2.341-2.341V77.628c0-7.414,0-12.877.39-16.389,1.171-8.975,7.8-13.267,20.291-13.267h1.561c12.487,0,19.121,4.292,19.9,13.267.39,3.512.39,8.975.39,16.389v52.68a2.069,2.069,0,0,0,2.341,2.341h17.17a2.249,2.249,0,0,0,2.341-2.341V67.092c0-7.414-.78-14.438-3.122-19.9C231.83,35.094,217.782,29.24,200.613,29.24Zm147.893,80.776c1.951-7.024,3.122-14.828,3.122-28.1s-1.171-21.072-3.122-28.1c-5.463-17.56-19.121-24.584-41.753-24.584h-2.732c-22.633,0-36.681,7.024-41.753,24.584-1.951,7.024-3.122,14.828-3.122,28.1s1.171,21.072,3.122,28.1c5.463,17.56,19.121,24.584,41.753,24.584h2.732C329.385,134.6,343.433,127.576,348.506,110.016ZM328.995,96.748c-1.561,16.389-10.146,19.121-23.413,19.121h-.39c-13.267,0-21.852-2.732-23.413-19.121-.39-5.073-.78-8.975-.78-14.828s.39-9.755.78-14.828c1.561-16.389,10.146-19.121,23.413-19.121h.39c13.267,0,21.852,2.732,23.413,19.121.39,5.073.78,8.975.78,14.828A60.886,60.886,0,0,1,328.995,96.748ZM490.546,31.191h-17.56c-1.561,0-1.951.39-1.951,1.951V130.7c0,1.561.78,1.951,1.951,1.951h17.56c1.561,0,2.341-.39,2.341-1.951V33.143C492.5,31.582,491.717,31.191,490.546,31.191Z" transform="translate(259.497 31.716)" fill="#00a9e0"/>
  <path id="Trazado_4" data-name="Trazado 4" d="M53.1,24.255c-12.877.39-37.071,6.634-48.387,51.9C.03,95.665-1.921,116.347,2.371,140.54A245.716,245.716,0,0,0,17.59,193.22a46.1,46.1,0,0,0,5.853,9.755c5.463,6.634,14.438,6.244,17.95,4.683,4.292-1.951,8.975-7.024,7.024-17.95a104.325,104.325,0,0,0-4.683-17.56c-4.292-13.267-9.755-29.657-10.146-41.363-.78-15.609,5.463-17.56,9.365-18.34,6.634-1.561,12.487,5.853,17.95,15.219,6.634,11.316,17.56,30.827,26.535,46.046,8.195,13.658,23.413,28.1,47.217,27.315,24.584-1.171,42.924-10.536,52.289-40.193,7.024-22.243,11.707-38.632,19.511-55.8,8.975-19.511,20.682-30.047,30.437-26.925,9.365,3.122,11.707,12.1,11.707,25.364a289.987,289.987,0,0,1-2.341,33.949c0,3.9-.39,10.926-.39,14.828.39,7.414,3.9,15.219,12.487,16.389,8.975,1.171,16.389-5.853,19.121-14.828,1.171-3.512,1.951-8.585,2.732-12.487,2.732-19.121,3.512-31.608,2.341-51.119-1.561-22.633-5.853-43.314-13.658-60.874-7.414-17.17-19.511-28.1-34.73-29.266-16.779-1.171-36.29,10.146-46.436,32-9.365,19.9-16.779,40.583-21.462,51.119s-11.316,17.17-21.852,18.34c-12.877,1.171-23.8-7.8-31.608-21.072C105.78,69.13,91.732,47.278,84.318,39.864,77.684,32.45,69.879,23.865,53.1,24.255Z" transform="translate(0.01 0.021)" fill="#00a9e0"/>
</svg>
